<mxfile host="app.diagrams.net" modified="2022-11-24T14:46:37.604Z" agent="5.0 (Macintosh; Intel Mac OS X 10_15_7) AppleWebKit/537.36 (KHTML, like Gecko) Chrome/106.0.0.0 Safari/537.36" etag="xap9-ij4PI-Cv4x6PXVa" version="20.4.1" type="github">
  <diagram id="x5qFLtVYXVqnTsikpQEC" name="Page-1">
    <mxGraphModel dx="1391" dy="932" grid="1" gridSize="10" guides="1" tooltips="1" connect="1" arrows="1" fold="1" page="1" pageScale="1" pageWidth="850" pageHeight="1100" math="0" shadow="0">
      <root>
        <mxCell id="0" />
        <mxCell id="1" parent="0" />
        <mxCell id="GvnFkajF3JIOPmjLLgxg-91" value="" style="rounded=0;whiteSpace=wrap;html=1;fontFamily=Times New Roman;fontSize=17;fontColor=#000000;fillColor=none;strokeColor=default;" vertex="1" parent="1">
          <mxGeometry x="130" y="598" width="470" height="32" as="geometry" />
        </mxCell>
        <mxCell id="GvnFkajF3JIOPmjLLgxg-15" value="ex:p1" style="ellipse;whiteSpace=wrap;html=1;rounded=0;fontFamily=Times New Roman;fontSize=18;fontColor=default;fillColor=#EA6B66;strokeColor=none;" vertex="1" parent="1">
          <mxGeometry x="260" y="308" width="50" height="33.33" as="geometry" />
        </mxCell>
        <mxCell id="GvnFkajF3JIOPmjLLgxg-16" value="ex:p2" style="ellipse;whiteSpace=wrap;html=1;rounded=0;fontFamily=Times New Roman;fontSize=18;fontColor=default;fillColor=#EA6B66;strokeColor=none;" vertex="1" parent="1">
          <mxGeometry x="260" y="354.67" width="50" height="33.33" as="geometry" />
        </mxCell>
        <mxCell id="GvnFkajF3JIOPmjLLgxg-17" value="ex:p3" style="ellipse;whiteSpace=wrap;html=1;rounded=0;fontFamily=Times New Roman;fontSize=18;fontColor=default;fillColor=#EA6B66;strokeColor=none;" vertex="1" parent="1">
          <mxGeometry x="260" y="404.67" width="50" height="33.33" as="geometry" />
        </mxCell>
        <mxCell id="GvnFkajF3JIOPmjLLgxg-18" value="ex:p4" style="ellipse;whiteSpace=wrap;html=1;rounded=0;fontFamily=Times New Roman;fontSize=18;fontColor=default;fillColor=#EA6B66;strokeColor=none;" vertex="1" parent="1">
          <mxGeometry x="260" y="454.67" width="50" height="33.33" as="geometry" />
        </mxCell>
        <mxCell id="GvnFkajF3JIOPmjLLgxg-19" value="ex:p5" style="ellipse;whiteSpace=wrap;html=1;rounded=0;fontFamily=Times New Roman;fontSize=18;fontColor=default;fillColor=#EA6B66;strokeColor=none;" vertex="1" parent="1">
          <mxGeometry x="260" y="504.67" width="50" height="33.33" as="geometry" />
        </mxCell>
        <mxCell id="GvnFkajF3JIOPmjLLgxg-20" value="ex:p6" style="ellipse;whiteSpace=wrap;html=1;rounded=0;fontFamily=Times New Roman;fontSize=18;fontColor=default;fillColor=#EA6B66;strokeColor=none;" vertex="1" parent="1">
          <mxGeometry x="260" y="554.6700000000001" width="50" height="33.33" as="geometry" />
        </mxCell>
        <mxCell id="GvnFkajF3JIOPmjLLgxg-21" value="ex:r1" style="ellipse;whiteSpace=wrap;html=1;rounded=0;fontFamily=Times New Roman;fontSize=18;fontColor=default;fillColor=#EA6B66;strokeColor=none;" vertex="1" parent="1">
          <mxGeometry x="430" y="308" width="50" height="33.33" as="geometry" />
        </mxCell>
        <mxCell id="GvnFkajF3JIOPmjLLgxg-22" value="ex:r2" style="ellipse;whiteSpace=wrap;html=1;rounded=0;fontFamily=Times New Roman;fontSize=18;fontColor=default;fillColor=#EA6B66;strokeColor=none;" vertex="1" parent="1">
          <mxGeometry x="430" y="354.67" width="50" height="33.33" as="geometry" />
        </mxCell>
        <mxCell id="GvnFkajF3JIOPmjLLgxg-23" value="ex:r3" style="ellipse;whiteSpace=wrap;html=1;rounded=0;fontFamily=Times New Roman;fontSize=18;fontColor=default;fillColor=#EA6B66;strokeColor=none;" vertex="1" parent="1">
          <mxGeometry x="430" y="404.67" width="50" height="33.33" as="geometry" />
        </mxCell>
        <mxCell id="GvnFkajF3JIOPmjLLgxg-24" value="ex:r4" style="ellipse;whiteSpace=wrap;html=1;rounded=0;fontFamily=Times New Roman;fontSize=18;fontColor=default;fillColor=#EA6B66;strokeColor=none;" vertex="1" parent="1">
          <mxGeometry x="430" y="454.67" width="50" height="33.33" as="geometry" />
        </mxCell>
        <mxCell id="GvnFkajF3JIOPmjLLgxg-25" value="ex:r5" style="ellipse;whiteSpace=wrap;html=1;rounded=0;fontFamily=Times New Roman;fontSize=18;fontColor=default;fillColor=#EA6B66;strokeColor=none;" vertex="1" parent="1">
          <mxGeometry x="430" y="504.6700000000001" width="50" height="33.33" as="geometry" />
        </mxCell>
        <mxCell id="GvnFkajF3JIOPmjLLgxg-26" value="ex:r6" style="ellipse;whiteSpace=wrap;html=1;rounded=0;fontFamily=Times New Roman;fontSize=18;fontColor=default;fillColor=#EA6B66;strokeColor=none;" vertex="1" parent="1">
          <mxGeometry x="430" y="554.6700000000001" width="50" height="33.33" as="geometry" />
        </mxCell>
        <mxCell id="GvnFkajF3JIOPmjLLgxg-27" value="&lt;font style=&quot;font-size: 17px;&quot;&gt;ex:Lung&lt;/font&gt;" style="ellipse;whiteSpace=wrap;html=1;rounded=0;fontFamily=Times New Roman;fontSize=18;fontColor=default;fillColor=#EA6B66;strokeColor=none;" vertex="1" parent="1">
          <mxGeometry x="130" y="378.01" width="60" height="33.33" as="geometry" />
        </mxCell>
        <mxCell id="GvnFkajF3JIOPmjLLgxg-28" value="&lt;font style=&quot;font-size: 17px;&quot;&gt;ex:Breast&lt;/font&gt;" style="ellipse;whiteSpace=wrap;html=1;rounded=0;fontFamily=Times New Roman;fontSize=18;fontColor=default;fillColor=#EA6B66;strokeColor=none;" vertex="1" parent="1">
          <mxGeometry x="130" y="548" width="70" height="33.33" as="geometry" />
        </mxCell>
        <mxCell id="GvnFkajF3JIOPmjLLgxg-29" value="Colorectal" style="ellipse;whiteSpace=wrap;html=1;rounded=0;fontFamily=Times New Roman;fontSize=15;fontColor=default;fillColor=#97D077;strokeColor=none;" vertex="1" parent="1">
          <mxGeometry x="680" y="40" width="70" height="33.33" as="geometry" />
        </mxCell>
        <mxCell id="GvnFkajF3JIOPmjLLgxg-36" value="&lt;font color=&quot;#009900&quot; style=&quot;background-color: rgb(255, 242, 204);&quot;&gt;owl:sameAs&lt;/font&gt;" style="edgeStyle=orthogonalEdgeStyle;orthogonalLoop=1;jettySize=auto;html=1;exitX=1;exitY=0.5;exitDx=0;exitDy=0;entryX=1;entryY=0.5;entryDx=0;entryDy=0;fontFamily=Times New Roman;fontSize=15;fontColor=#000000;curved=1;textOpacity=90;endArrow=classic;endFill=1;startArrow=classic;startFill=1;" edge="1" parent="1" source="GvnFkajF3JIOPmjLLgxg-18" target="GvnFkajF3JIOPmjLLgxg-17">
          <mxGeometry relative="1" as="geometry">
            <mxPoint x="150.00000000000546" y="448.0049999999999" as="sourcePoint" />
            <mxPoint x="270.0000000000023" y="448.0049999999999" as="targetPoint" />
          </mxGeometry>
        </mxCell>
        <mxCell id="GvnFkajF3JIOPmjLLgxg-52" value="&lt;font color=&quot;#009900&quot; style=&quot;line-height: 1; background-color: rgb(255, 255, 255);&quot;&gt;ex:hasRelative&lt;/font&gt;" style="edgeStyle=orthogonalEdgeStyle;curved=1;orthogonalLoop=1;jettySize=auto;html=1;exitX=1;exitY=0.5;exitDx=0;exitDy=0;entryX=0;entryY=0.5;entryDx=0;entryDy=0;labelBackgroundColor=#FFFFFF;fontFamily=Times New Roman;fontSize=15;fontColor=#3333FF;shadow=0;fillColor=#00CC00;textOpacity=90;" edge="1" parent="1" source="GvnFkajF3JIOPmjLLgxg-18" target="GvnFkajF3JIOPmjLLgxg-25">
          <mxGeometry x="0.2745" y="13" relative="1" as="geometry">
            <mxPoint x="320.00000000000546" y="481.33500000000004" as="sourcePoint" />
            <mxPoint x="440.0000000000023" y="481.33500000000004" as="targetPoint" />
            <Array as="points">
              <mxPoint x="310" y="521" />
            </Array>
            <mxPoint as="offset" />
          </mxGeometry>
        </mxCell>
        <mxCell id="GvnFkajF3JIOPmjLLgxg-49" value="&lt;font color=&quot;#009900&quot; style=&quot;line-height: 1; background-color: rgb(255, 255, 255);&quot;&gt;ex:hasRelative&lt;/font&gt;" style="edgeStyle=orthogonalEdgeStyle;curved=1;orthogonalLoop=1;jettySize=auto;html=1;exitX=1;exitY=0.5;exitDx=0;exitDy=0;entryX=0;entryY=0.5;entryDx=0;entryDy=0;labelBackgroundColor=#FFFFFF;fontFamily=Times New Roman;fontSize=15;fontColor=#3333FF;shadow=0;fillColor=#00CC00;textOpacity=90;" edge="1" parent="1" source="GvnFkajF3JIOPmjLLgxg-15" target="GvnFkajF3JIOPmjLLgxg-21">
          <mxGeometry relative="1" as="geometry" />
        </mxCell>
        <mxCell id="GvnFkajF3JIOPmjLLgxg-50" value="&lt;font color=&quot;#009900&quot; style=&quot;line-height: 1; background-color: rgb(255, 255, 255);&quot;&gt;ex:hasRelative&lt;/font&gt;" style="edgeStyle=orthogonalEdgeStyle;curved=1;orthogonalLoop=1;jettySize=auto;html=1;exitX=1;exitY=0.5;exitDx=0;exitDy=0;entryX=0;entryY=0.5;entryDx=0;entryDy=0;labelBackgroundColor=#FFFFFF;fontFamily=Times New Roman;fontSize=15;fontColor=#3333FF;shadow=0;fillColor=#00CC00;textOpacity=90;" edge="1" parent="1" source="GvnFkajF3JIOPmjLLgxg-17" target="GvnFkajF3JIOPmjLLgxg-23">
          <mxGeometry relative="1" as="geometry">
            <mxPoint x="320.00000000000546" y="334.66499999999996" as="sourcePoint" />
            <mxPoint x="440.0000000000023" y="334.66499999999996" as="targetPoint" />
          </mxGeometry>
        </mxCell>
        <mxCell id="GvnFkajF3JIOPmjLLgxg-51" value="&lt;font color=&quot;#009900&quot; style=&quot;line-height: 1; background-color: rgb(255, 255, 255);&quot;&gt;ex:hasRelative&lt;/font&gt;" style="edgeStyle=orthogonalEdgeStyle;curved=1;orthogonalLoop=1;jettySize=auto;html=1;exitX=1;exitY=0.5;exitDx=0;exitDy=0;entryX=0;entryY=0.5;entryDx=0;entryDy=0;labelBackgroundColor=#FFFFFF;fontFamily=Times New Roman;fontSize=15;fontColor=#3333FF;shadow=0;fillColor=#00CC00;textOpacity=90;" edge="1" parent="1" source="GvnFkajF3JIOPmjLLgxg-18" target="GvnFkajF3JIOPmjLLgxg-24">
          <mxGeometry relative="1" as="geometry">
            <mxPoint x="320.00000000000546" y="431.33500000000004" as="sourcePoint" />
            <mxPoint x="440.0000000000023" y="431.33500000000004" as="targetPoint" />
          </mxGeometry>
        </mxCell>
        <mxCell id="GvnFkajF3JIOPmjLLgxg-53" value="&lt;font color=&quot;#009900&quot; style=&quot;line-height: 1; background-color: rgb(255, 255, 255);&quot;&gt;ex:hasRelative&lt;/font&gt;" style="edgeStyle=orthogonalEdgeStyle;curved=1;orthogonalLoop=1;jettySize=auto;html=1;exitX=1;exitY=0.5;exitDx=0;exitDy=0;entryX=0;entryY=0.5;entryDx=0;entryDy=0;labelBackgroundColor=#FFFFFF;fontFamily=Times New Roman;fontSize=15;fontColor=#3333FF;shadow=0;fillColor=#00CC00;textOpacity=90;" edge="1" parent="1" source="GvnFkajF3JIOPmjLLgxg-19" target="GvnFkajF3JIOPmjLLgxg-26">
          <mxGeometry relative="1" as="geometry">
            <mxPoint x="320.00000000000546" y="481.33500000000004" as="sourcePoint" />
            <mxPoint x="440.0000000000023" y="531.335" as="targetPoint" />
          </mxGeometry>
        </mxCell>
        <mxCell id="GvnFkajF3JIOPmjLLgxg-56" value="&lt;font color=&quot;#009900&quot; style=&quot;line-height: 1; background-color: rgb(255, 255, 255);&quot;&gt;ex:hasUncle&lt;/font&gt;" style="edgeStyle=orthogonalEdgeStyle;curved=1;orthogonalLoop=1;jettySize=auto;html=1;exitX=1;exitY=0.5;exitDx=0;exitDy=0;labelBackgroundColor=#FFFFFF;fontFamily=Times New Roman;fontSize=15;fontColor=#3333FF;shadow=0;fillColor=#00CC00;textOpacity=90;entryX=0;entryY=0.5;entryDx=0;entryDy=0;" edge="1" parent="1" source="GvnFkajF3JIOPmjLLgxg-16" target="GvnFkajF3JIOPmjLLgxg-23">
          <mxGeometry x="-0.2943" y="-7" relative="1" as="geometry">
            <mxPoint x="320.00000000000546" y="581.335" as="sourcePoint" />
            <mxPoint x="430" y="418" as="targetPoint" />
            <Array as="points">
              <mxPoint x="430" y="371" />
            </Array>
            <mxPoint as="offset" />
          </mxGeometry>
        </mxCell>
        <mxCell id="GvnFkajF3JIOPmjLLgxg-54" value="&lt;font color=&quot;#009900&quot; style=&quot;line-height: 1; background-color: rgb(255, 255, 255);&quot;&gt;ex:hasMom&lt;/font&gt;" style="edgeStyle=orthogonalEdgeStyle;curved=1;orthogonalLoop=1;jettySize=auto;html=1;exitX=1;exitY=0.5;exitDx=0;exitDy=0;entryX=0;entryY=0.5;entryDx=0;entryDy=0;labelBackgroundColor=#FFFFFF;fontFamily=Times New Roman;fontSize=15;fontColor=#3333FF;shadow=0;fillColor=#00CC00;textOpacity=90;" edge="1" parent="1" source="GvnFkajF3JIOPmjLLgxg-15" target="GvnFkajF3JIOPmjLLgxg-22">
          <mxGeometry relative="1" as="geometry">
            <mxPoint x="320.00000000000546" y="334.66499999999996" as="sourcePoint" />
            <mxPoint x="440.0000000000023" y="334.66499999999996" as="targetPoint" />
          </mxGeometry>
        </mxCell>
        <mxCell id="GvnFkajF3JIOPmjLLgxg-55" value="&lt;font color=&quot;#009900&quot; style=&quot;line-height: 1; background-color: rgb(255, 255, 255);&quot;&gt;ex:hasMom&lt;/font&gt;" style="edgeStyle=orthogonalEdgeStyle;curved=1;orthogonalLoop=1;jettySize=auto;html=1;exitX=1;exitY=0.5;exitDx=0;exitDy=0;entryX=0;entryY=0.5;entryDx=0;entryDy=0;labelBackgroundColor=#FFFFFF;fontFamily=Times New Roman;fontSize=15;fontColor=#3333FF;shadow=0;fillColor=#00CC00;textOpacity=90;" edge="1" parent="1" source="GvnFkajF3JIOPmjLLgxg-20" target="GvnFkajF3JIOPmjLLgxg-26">
          <mxGeometry relative="1" as="geometry">
            <mxPoint x="320.00000000000546" y="334.66499999999996" as="sourcePoint" />
            <mxPoint x="440.0000000000023" y="381.33500000000004" as="targetPoint" />
          </mxGeometry>
        </mxCell>
        <mxCell id="GvnFkajF3JIOPmjLLgxg-60" value="&lt;font color=&quot;#009900&quot; style=&quot;line-height: 1; background-color: rgb(255, 255, 255);&quot;&gt;ex:isSmoker&lt;/font&gt;" style="edgeStyle=orthogonalEdgeStyle;curved=1;orthogonalLoop=1;jettySize=auto;html=1;entryX=0;entryY=0.5;entryDx=0;entryDy=0;labelBackgroundColor=#FFFFFF;fontFamily=Times New Roman;fontSize=15;fontColor=#3333FF;shadow=0;fillColor=#00CC00;textOpacity=90;exitX=1;exitY=0.5;exitDx=0;exitDy=0;" edge="1" parent="1" source="GvnFkajF3JIOPmjLLgxg-21" target="GvnFkajF3JIOPmjLLgxg-62">
          <mxGeometry relative="1" as="geometry">
            <mxPoint x="480" y="324" as="sourcePoint" />
            <mxPoint x="600.0000000000023" y="324.15500000000003" as="targetPoint" />
            <Array as="points" />
          </mxGeometry>
        </mxCell>
        <mxCell id="GvnFkajF3JIOPmjLLgxg-62" value="1" style="rounded=0;whiteSpace=wrap;html=1;fillColor=#67AB9F;strokeColor=none;fontSize=15;" vertex="1" parent="1">
          <mxGeometry x="580" y="314.65999999999997" width="20" height="20" as="geometry" />
        </mxCell>
        <mxCell id="GvnFkajF3JIOPmjLLgxg-66" value="1" style="rounded=0;whiteSpace=wrap;html=1;fillColor=#67AB9F;strokeColor=none;fontSize=15;" vertex="1" parent="1">
          <mxGeometry x="580" y="411.34" width="20" height="20" as="geometry" />
        </mxCell>
        <mxCell id="GvnFkajF3JIOPmjLLgxg-67" value="&lt;font color=&quot;#009900&quot; style=&quot;line-height: 1; background-color: rgb(255, 255, 255);&quot;&gt;ex:isSmoker&lt;/font&gt;" style="edgeStyle=orthogonalEdgeStyle;curved=1;orthogonalLoop=1;jettySize=auto;html=1;entryX=0;entryY=0.5;entryDx=0;entryDy=0;labelBackgroundColor=#FFFFFF;fontFamily=Times New Roman;fontSize=15;fontColor=#3333FF;shadow=0;fillColor=#00CC00;textOpacity=90;exitX=1;exitY=0.5;exitDx=0;exitDy=0;" edge="1" parent="1" source="GvnFkajF3JIOPmjLLgxg-23" target="GvnFkajF3JIOPmjLLgxg-66">
          <mxGeometry relative="1" as="geometry">
            <mxPoint x="489.9999999999975" y="334.66499999999996" as="sourcePoint" />
            <mxPoint x="590" y="334.65999999999985" as="targetPoint" />
            <Array as="points" />
          </mxGeometry>
        </mxCell>
        <mxCell id="GvnFkajF3JIOPmjLLgxg-68" value="0" style="rounded=0;whiteSpace=wrap;html=1;fillColor=#67AB9F;strokeColor=none;fontSize=15;" vertex="1" parent="1">
          <mxGeometry x="580" y="461.34000000000003" width="20" height="20" as="geometry" />
        </mxCell>
        <mxCell id="GvnFkajF3JIOPmjLLgxg-69" value="0" style="rounded=0;whiteSpace=wrap;html=1;fillColor=#67AB9F;strokeColor=none;fontSize=15;" vertex="1" parent="1">
          <mxGeometry x="580" y="511.33000000000004" width="20" height="20" as="geometry" />
        </mxCell>
        <mxCell id="GvnFkajF3JIOPmjLLgxg-70" value="0" style="rounded=0;whiteSpace=wrap;html=1;fillColor=#67AB9F;strokeColor=none;fontSize=15;" vertex="1" parent="1">
          <mxGeometry x="580" y="561.34" width="20" height="20" as="geometry" />
        </mxCell>
        <mxCell id="GvnFkajF3JIOPmjLLgxg-71" value="&lt;font color=&quot;#009900&quot; style=&quot;line-height: 1; background-color: rgb(255, 255, 255);&quot;&gt;ex:isSmoker&lt;/font&gt;" style="edgeStyle=orthogonalEdgeStyle;curved=1;orthogonalLoop=1;jettySize=auto;html=1;entryX=0;entryY=0.5;entryDx=0;entryDy=0;labelBackgroundColor=#FFFFFF;fontFamily=Times New Roman;fontSize=15;fontColor=#3333FF;shadow=0;fillColor=#00CC00;textOpacity=90;exitX=1;exitY=0.5;exitDx=0;exitDy=0;" edge="1" parent="1" source="GvnFkajF3JIOPmjLLgxg-24" target="GvnFkajF3JIOPmjLLgxg-68">
          <mxGeometry relative="1" as="geometry">
            <mxPoint x="489.9999999999975" y="431.33500000000004" as="sourcePoint" />
            <mxPoint x="590" y="431.3399999999999" as="targetPoint" />
            <Array as="points" />
          </mxGeometry>
        </mxCell>
        <mxCell id="GvnFkajF3JIOPmjLLgxg-72" value="&lt;font color=&quot;#009900&quot; style=&quot;line-height: 1; background-color: rgb(255, 255, 255);&quot;&gt;ex:isSmoker&lt;/font&gt;" style="edgeStyle=orthogonalEdgeStyle;curved=1;orthogonalLoop=1;jettySize=auto;html=1;entryX=0;entryY=0.5;entryDx=0;entryDy=0;labelBackgroundColor=#FFFFFF;fontFamily=Times New Roman;fontSize=15;fontColor=#3333FF;shadow=0;fillColor=#00CC00;textOpacity=90;exitX=1;exitY=0.5;exitDx=0;exitDy=0;" edge="1" parent="1" source="GvnFkajF3JIOPmjLLgxg-25" target="GvnFkajF3JIOPmjLLgxg-69">
          <mxGeometry relative="1" as="geometry">
            <mxPoint x="489.9999999999975" y="481.33500000000004" as="sourcePoint" />
            <mxPoint x="590" y="481.34000000000015" as="targetPoint" />
            <Array as="points" />
          </mxGeometry>
        </mxCell>
        <mxCell id="GvnFkajF3JIOPmjLLgxg-73" value="&lt;font color=&quot;#009900&quot; style=&quot;line-height: 1; background-color: rgb(255, 255, 255);&quot;&gt;ex:isSmoker&lt;/font&gt;" style="edgeStyle=orthogonalEdgeStyle;curved=1;orthogonalLoop=1;jettySize=auto;html=1;entryX=0;entryY=0.5;entryDx=0;entryDy=0;labelBackgroundColor=#FFFFFF;fontFamily=Times New Roman;fontSize=15;fontColor=#3333FF;shadow=0;fillColor=#00CC00;textOpacity=90;exitX=1;exitY=0.5;exitDx=0;exitDy=0;" edge="1" parent="1" source="GvnFkajF3JIOPmjLLgxg-26" target="GvnFkajF3JIOPmjLLgxg-70">
          <mxGeometry relative="1" as="geometry">
            <mxPoint x="489.9999999999975" y="531.335" as="sourcePoint" />
            <mxPoint x="590" y="531.3299999999999" as="targetPoint" />
            <Array as="points" />
          </mxGeometry>
        </mxCell>
        <mxCell id="GvnFkajF3JIOPmjLLgxg-75" value="&lt;font color=&quot;#009900&quot; style=&quot;line-height: 1; background-color: rgb(255, 255, 255);&quot;&gt;ex:hasCancer&lt;/font&gt;" style="edgeStyle=orthogonalEdgeStyle;curved=1;orthogonalLoop=1;jettySize=auto;html=1;labelBackgroundColor=#FFFFFF;fontFamily=Times New Roman;fontSize=15;fontColor=#3333FF;shadow=0;fillColor=#00CC00;textOpacity=90;exitX=0;exitY=0.5;exitDx=0;exitDy=0;entryX=1;entryY=0.5;entryDx=0;entryDy=0;" edge="1" parent="1" source="GvnFkajF3JIOPmjLLgxg-16" target="GvnFkajF3JIOPmjLLgxg-27">
          <mxGeometry relative="1" as="geometry">
            <mxPoint x="139.9999999999975" y="257.995" as="sourcePoint" />
            <mxPoint x="180" y="395" as="targetPoint" />
            <Array as="points">
              <mxPoint x="190" y="371" />
            </Array>
          </mxGeometry>
        </mxCell>
        <mxCell id="GvnFkajF3JIOPmjLLgxg-79" value="&lt;font color=&quot;#009900&quot; style=&quot;line-height: 1; background-color: rgb(255, 255, 255);&quot;&gt;ex:hasCancer&lt;/font&gt;" style="edgeStyle=orthogonalEdgeStyle;curved=1;orthogonalLoop=1;jettySize=auto;html=1;entryX=0.5;entryY=1;entryDx=0;entryDy=0;labelBackgroundColor=#FFFFFF;fontFamily=Times New Roman;fontSize=15;fontColor=#3333FF;shadow=0;fillColor=#00CC00;textOpacity=90;exitX=0;exitY=0.5;exitDx=0;exitDy=0;" edge="1" parent="1" source="GvnFkajF3JIOPmjLLgxg-18" target="GvnFkajF3JIOPmjLLgxg-27">
          <mxGeometry x="-0.2725" y="-13" relative="1" as="geometry">
            <mxPoint x="489.9999999999975" y="334.66499999999996" as="sourcePoint" />
            <mxPoint x="590" y="334.65999999999985" as="targetPoint" />
            <Array as="points" />
            <mxPoint as="offset" />
          </mxGeometry>
        </mxCell>
        <mxCell id="GvnFkajF3JIOPmjLLgxg-80" value="&lt;font color=&quot;#009900&quot; style=&quot;line-height: 1; background-color: rgb(255, 255, 255);&quot;&gt;ex:hasCancer&lt;/font&gt;" style="edgeStyle=orthogonalEdgeStyle;curved=1;orthogonalLoop=1;jettySize=auto;html=1;labelBackgroundColor=#FFFFFF;fontFamily=Times New Roman;fontSize=15;fontColor=#3333FF;shadow=0;fillColor=#00CC00;textOpacity=90;exitX=0;exitY=0.5;exitDx=0;exitDy=0;entryX=0.5;entryY=0;entryDx=0;entryDy=0;" edge="1" parent="1" source="GvnFkajF3JIOPmjLLgxg-19" target="GvnFkajF3JIOPmjLLgxg-28">
          <mxGeometry x="-0.0888" relative="1" as="geometry">
            <mxPoint x="269.99999999999454" y="481.33500000000004" as="sourcePoint" />
            <mxPoint x="160" y="521" as="targetPoint" />
            <Array as="points">
              <mxPoint x="165" y="521" />
            </Array>
            <mxPoint as="offset" />
          </mxGeometry>
        </mxCell>
        <mxCell id="GvnFkajF3JIOPmjLLgxg-81" value="&lt;font color=&quot;#009900&quot; style=&quot;line-height: 1; background-color: rgb(255, 255, 255);&quot;&gt;ex:hasCancer&lt;/font&gt;" style="edgeStyle=orthogonalEdgeStyle;curved=1;orthogonalLoop=1;jettySize=auto;html=1;entryX=1;entryY=0.5;entryDx=0;entryDy=0;labelBackgroundColor=#FFFFFF;fontFamily=Times New Roman;fontSize=15;fontColor=#3333FF;shadow=0;fillColor=#00CC00;textOpacity=90;exitX=0;exitY=0.5;exitDx=0;exitDy=0;" edge="1" parent="1" source="GvnFkajF3JIOPmjLLgxg-17" target="GvnFkajF3JIOPmjLLgxg-27">
          <mxGeometry x="0.035" y="-3" relative="1" as="geometry">
            <mxPoint x="269.99999999999454" y="481.33500000000004" as="sourcePoint" />
            <mxPoint x="170" y="421.3399999999999" as="targetPoint" />
            <Array as="points">
              <mxPoint x="190" y="421" />
            </Array>
            <mxPoint as="offset" />
          </mxGeometry>
        </mxCell>
        <mxCell id="GvnFkajF3JIOPmjLLgxg-82" value="" style="ellipse;whiteSpace=wrap;html=1;rounded=0;fontFamily=Times New Roman;fontSize=18;fontColor=default;fillColor=#EA6B66;strokeColor=none;" vertex="1" parent="1">
          <mxGeometry x="145" y="603" width="30" height="20" as="geometry" />
        </mxCell>
        <mxCell id="GvnFkajF3JIOPmjLLgxg-83" value="" style="rounded=0;whiteSpace=wrap;html=1;fillColor=#67AB9F;strokeColor=none;fontSize=15;" vertex="1" parent="1">
          <mxGeometry x="310" y="603" width="20" height="20" as="geometry" />
        </mxCell>
        <mxCell id="GvnFkajF3JIOPmjLLgxg-85" value="&lt;font color=&quot;#009900&quot; style=&quot;line-height: 1; background-color: rgb(255, 255, 255);&quot;&gt;label&lt;/font&gt;" style="edgeStyle=orthogonalEdgeStyle;curved=1;orthogonalLoop=1;jettySize=auto;html=1;labelBackgroundColor=#FFFFFF;fontFamily=Times New Roman;fontSize=15;fontColor=#3333FF;shadow=0;fillColor=#00CC00;textOpacity=90;strokeWidth=2;" edge="1" parent="1">
          <mxGeometry x="-0.2" relative="1" as="geometry">
            <mxPoint x="464" y="613" as="sourcePoint" />
            <mxPoint x="514" y="613" as="targetPoint" />
            <Array as="points">
              <mxPoint x="492" y="613" />
            </Array>
            <mxPoint as="offset" />
          </mxGeometry>
        </mxCell>
        <mxCell id="GvnFkajF3JIOPmjLLgxg-87" value="&lt;font color=&quot;#000000&quot;&gt;Class&lt;/font&gt;" style="text;html=1;align=center;verticalAlign=middle;resizable=0;points=[];autosize=1;strokeColor=none;fillColor=none;fontSize=17;fontFamily=Times New Roman;fontColor=#009900;" vertex="1" parent="1">
          <mxGeometry x="170" y="598" width="60" height="30" as="geometry" />
        </mxCell>
        <mxCell id="GvnFkajF3JIOPmjLLgxg-88" value="&lt;font color=&quot;#000000&quot;&gt;Attribute&lt;/font&gt;" style="text;html=1;align=center;verticalAlign=middle;resizable=0;points=[];autosize=1;strokeColor=none;fillColor=none;fontSize=17;fontFamily=Times New Roman;fontColor=#009900;" vertex="1" parent="1">
          <mxGeometry x="330" y="598" width="80" height="30" as="geometry" />
        </mxCell>
        <mxCell id="GvnFkajF3JIOPmjLLgxg-90" value="" style="rounded=0;whiteSpace=wrap;html=1;fontFamily=Times New Roman;fontSize=17;fontColor=#000000;fillColor=none;" vertex="1" parent="1">
          <mxGeometry x="120" y="300" width="490" height="340" as="geometry" />
        </mxCell>
        <mxCell id="GvnFkajF3JIOPmjLLgxg-89" value="&lt;font color=&quot;#000000&quot;&gt;Property&lt;/font&gt;" style="text;html=1;align=center;verticalAlign=middle;resizable=0;points=[];autosize=1;strokeColor=none;fillColor=none;fontSize=17;fontFamily=Times New Roman;fontColor=#009900;" vertex="1" parent="1">
          <mxGeometry x="510" y="598" width="80" height="30" as="geometry" />
        </mxCell>
      </root>
    </mxGraphModel>
  </diagram>
</mxfile>
